<mxfile host="Electron" modified="2024-07-19T04:40:36.100Z" agent="Mozilla/5.0 (Windows NT 10.0; Win64; x64) AppleWebKit/537.36 (KHTML, like Gecko) draw.io/24.6.4 Chrome/124.0.6367.207 Electron/30.0.6 Safari/537.36" etag="8OBcx5Sw8o6iaVvq4GUk" version="24.6.4" type="device">
  <diagram name="PÃ¡gina-1" id="jQoiph2c1nl-3ZJ2nl2n">
    <mxGraphModel dx="419" dy="253" grid="1" gridSize="10" guides="1" tooltips="1" connect="1" arrows="1" fold="1" page="1" pageScale="1" pageWidth="827" pageHeight="1169" math="0" shadow="0">
      <root>
        <mxCell id="0" />
        <mxCell id="1" parent="0" />
        <mxCell id="OkkiLNKMATkOTUkjnKhW-4" value="" style="group" vertex="1" connectable="0" parent="1">
          <mxGeometry x="363" y="152" width="137" height="122" as="geometry" />
        </mxCell>
        <mxCell id="OkkiLNKMATkOTUkjnKhW-3" value="" style="rounded=0;whiteSpace=wrap;html=1;fillColor=#ffcccc;strokeColor=#36393D;" vertex="1" parent="OkkiLNKMATkOTUkjnKhW-4">
          <mxGeometry width="84" height="96" as="geometry" />
        </mxCell>
        <mxCell id="_NtyxQ0_7e0Htwn68GD2-1" value="&lt;font style=&quot;font-size: 14px;&quot; face=&quot;Courier New&quot;&gt;&lt;b&gt;data&lt;/b&gt;&lt;/font&gt;" style="rounded=0;whiteSpace=wrap;html=1;fillColor=#d5e8d4;strokeColor=#000000;" parent="OkkiLNKMATkOTUkjnKhW-4" vertex="1">
          <mxGeometry x="7" y="8" width="70" height="40" as="geometry" />
        </mxCell>
        <mxCell id="_NtyxQ0_7e0Htwn68GD2-2" value="&lt;font style=&quot;font-size: 14px;&quot; face=&quot;Courier New&quot;&gt;&lt;b&gt;next&lt;/b&gt;&lt;/font&gt;" style="rounded=0;whiteSpace=wrap;html=1;fillColor=#fff2cc;strokeColor=#000000;" parent="OkkiLNKMATkOTUkjnKhW-4" vertex="1">
          <mxGeometry x="7" y="48" width="70" height="40" as="geometry" />
        </mxCell>
        <mxCell id="_NtyxQ0_7e0Htwn68GD2-5" value="&lt;font size=&quot;1&quot; face=&quot;Courier New&quot;&gt;&lt;b style=&quot;font-size: 16px;&quot;&gt;node&lt;/b&gt;&lt;/font&gt;" style="text;html=1;align=center;verticalAlign=middle;whiteSpace=wrap;rounded=0;" parent="OkkiLNKMATkOTUkjnKhW-4" vertex="1">
          <mxGeometry x="13" y="92" width="60" height="30" as="geometry" />
        </mxCell>
        <mxCell id="_NtyxQ0_7e0Htwn68GD2-6" value="" style="endArrow=classic;html=1;rounded=0;exitX=1;exitY=0.5;exitDx=0;exitDy=0;" parent="OkkiLNKMATkOTUkjnKhW-4" source="_NtyxQ0_7e0Htwn68GD2-2" edge="1">
          <mxGeometry width="50" height="50" relative="1" as="geometry">
            <mxPoint x="187" y="188" as="sourcePoint" />
            <mxPoint x="137" y="68" as="targetPoint" />
          </mxGeometry>
        </mxCell>
        <mxCell id="OkkiLNKMATkOTUkjnKhW-1" value="" style="endArrow=classic;html=1;rounded=0;exitX=1;exitY=0.5;exitDx=0;exitDy=0;" edge="1" parent="OkkiLNKMATkOTUkjnKhW-4">
          <mxGeometry width="50" height="50" relative="1" as="geometry">
            <mxPoint x="77" y="27.75999999999999" as="sourcePoint" />
            <mxPoint x="137" y="27.75999999999999" as="targetPoint" />
          </mxGeometry>
        </mxCell>
      </root>
    </mxGraphModel>
  </diagram>
</mxfile>
